<?xml version="1.0" encoding="utf-8"?>
<!-- Generator: Adobe Illustrator 27.0.0, SVG Export Plug-In . SVG Version: 6.00 Build 0)  -->
<svg version="1.1" id="Layer_1" xmlns="http://www.w3.org/2000/svg" xmlns:xlink="http://www.w3.org/1999/xlink" x="0px" y="0px"
	 viewBox="0 0 512 512" style="enable-background:new 0 0 512 512;" xml:space="preserve">
<style type="text/css">
	.st0{fill:#0078D6;}
</style>
<g id="XMLID_1_">
	<path id="XMLID_3_" class="st0" d="M43.06,216.3c16.97-2.67,33.95-5.05,50.92-7.43c0,14.87,0,29.74,0,44.75
		c-16.97,0-33.95,0.28-50.92,0.42C43.06,241.41,43.06,228.79,43.06,216.3L43.06,216.3z"/>
	<path id="XMLID_4_" class="st0" d="M0,222.33c12.76-1.96,25.67-3.65,38.44-5.33c0,12.34,0,24.69,0,37.03
		c-12.76,0-25.67,0.14-38.44,0.14V222.33z"/>
	<path id="XMLID_5_" class="st0" d="M202.98,224.3c3.37-2.1,7.72,2.38,5.75,5.75c-0.98,2.52-4.35,3.37-6.31,1.54
		C199.75,229.91,200.17,225.56,202.98,224.3z"/>
	<path id="XMLID_8_" class="st0" d="M290.93,223.88c2.1,0,4.35,0,6.45,0c0,20.06,0,40.26,0,60.32c-2.1,0-4.35,0-6.45,0
		c0-2.24,0-4.35-0.14-6.59c-4.63,8.42-17.11,10.24-24.27,4.07c-5.05-4.35-6.59-11.5-6.31-17.96c0-6.59,2.24-13.47,7.43-17.81
		c6.73-5.61,18.8-5.19,23.43,2.95C290.93,240.57,291.07,232.15,290.93,223.88 M277.04,247.72c-5.19,0.84-8.7,5.47-9.68,10.38
		c-1.26,5.89-0.98,12.62,2.67,17.67c4.07,5.33,12.91,5.47,17.11,0.42c2.95-3.09,3.79-7.43,3.79-11.5c0-4.35,0.42-9.12-2.52-12.76
		C286.02,248.43,281.25,246.88,277.04,247.72z"/>
	<path id="XMLID_9_" class="st0" d="M465.57,226.26c0.56-0.14,1.68-0.28,2.24-0.28c0,19.5,0,38.86,0,58.35c-2.1,0-4.21,0-6.31,0
		c0-16.13-0.14-32.4,0.14-48.53c-4.07,2.81-8.42,5.19-13.19,6.59c0-2.1,0-4.35,0.14-6.45C454.63,233.7,460.38,230.19,465.57,226.26z
		"/>
	<path id="XMLID_12_" class="st0" d="M491.38,226.12c5.61-0.98,11.78,1.12,15.15,5.89c4.77,6.73,5.19,15.29,5.47,23.15
		c-0.14,8.28-1.12,17.39-6.45,24.13c-4.91,6.45-15.01,8-21.46,3.23c-5.33-3.79-7.43-10.52-8.42-16.83
		c-1.12-9.26-0.98-18.94,2.24-27.77C480.02,232.15,484.93,226.96,491.38,226.12 M490.4,232.01c-5.75,2.38-7.43,9.12-8.14,14.59
		c-0.84,7.72-0.98,15.57,0.84,23.15c0.98,3.79,2.81,7.72,6.59,9.26c4.21,2.1,9.82,0.28,12.06-3.79c3.51-6.03,3.65-13.33,3.65-20.2
		c-0.14-6.73-0.42-13.89-4.07-19.64C498.95,231.87,494.33,230.47,490.4,232.01z"/>
	<path id="XMLID_13_" class="st0" d="M122.74,227.1c2.38,0,4.91,0,7.29,0c3.79,13.61,7.57,27.35,11.36,40.96
		c0.84,2.81,1.4,5.75,1.82,8.84c3.93-16.83,9.26-33.24,13.89-49.8c2.1,0,4.21,0,6.31,0c3.37,11.78,6.45,23.71,9.68,35.63
		c1.26,4.77,2.81,9.4,3.23,14.31c3.51-16.69,8.7-33.1,12.62-49.8c2.38,0,4.77,0,7.15,0c-5.19,19.08-10.66,38.01-15.85,57.09
		c-2.52,0-5.19,0-7.72,0c-3.79-13.61-7.57-27.35-11.5-40.96c-0.7-2.24-0.98-4.49-1.12-6.73c-0.28,1.96-0.56,3.93-1.12,5.89
		c-3.93,13.89-7.86,27.77-11.64,41.8c-2.52,0.14-5.19,0.14-7.72,0.14C133.82,265.12,128.21,246.18,122.74,227.1L122.74,227.1z"/>
	<path id="XMLID_14_" class="st0" d="M225.14,249.83c3.65-6.59,12.34-9.54,19.22-6.59c5.47,2.1,7.57,8.56,7.72,14.03
		c0.28,8.98,0,17.96,0.14,26.93c-2.1,0-4.35,0-6.45,0c-0.14-8.56,0.28-17.25-0.14-25.81c-0.14-4.21-1.96-9.4-6.59-10.52
		c-6.73-2.1-13.61,4.07-13.75,10.8c-0.14,8.56,0,17.11-0.14,25.53c-2.1,0-4.35,0-6.45,0c0-13.61,0-27.35,0-40.96
		c2.1,0,4.35,0,6.45,0C225.28,245.48,225.28,247.72,225.14,249.83z"/>
	<path id="XMLID_17_" class="st0" d="M322.63,242.25c5.75-0.56,12.2,0.42,16.41,4.63c4.91,4.49,6.31,11.5,6.03,17.96
		c-0.14,5.75-2.24,11.64-6.45,15.57c-8.84,8-25.11,6.31-30.72-4.77c-4.35-9.26-3.51-22.02,4.49-29.04
		C315.34,244.22,318.98,243.09,322.63,242.25 M321.37,248.14c-9.54,2.95-11.08,15.29-8.14,23.43c2.38,7.29,11.5,10.38,18.1,7.01
		c4.49-2.1,6.45-7.15,6.87-11.78c0.42-5.33,0-11.5-3.79-15.71C331.33,247.58,325.86,246.74,321.37,248.14z"/>
	<path id="XMLID_18_" class="st0" d="M420.54,242.25c4.07-0.28,8.14,0.14,11.92,1.54c1.12,1.96,0.28,4.63,0.42,6.87
		c-4.49-2.81-10.8-4.63-15.71-1.82c-3.37,1.82-3.51,7.29-0.28,9.26c4.77,3.09,10.66,3.79,14.87,7.72
		c4.63,4.49,3.51,12.91-1.96,16.27c-6.59,4.21-15.15,3.79-22.02,0.56c0-2.38,0-4.77,0-7.29c4.91,3.79,11.78,5.75,17.67,3.09
		c3.37-1.68,3.65-7.01,0.56-9.12c-4.77-3.51-11.22-4.07-15.29-8.42c-4.07-4.21-3.37-11.78,1.26-15.29
		C414.37,243.8,417.6,243.09,420.54,242.25z"/>
	<path id="XMLID_19_" class="st0" d="M201.57,243.24c2.1,0,4.35,0,6.45,0c0,13.61,0,27.35,0,40.96c-2.1,0-4.35,0-6.45,0
		C201.57,270.59,201.57,256.98,201.57,243.24z"/>
	<path id="XMLID_20_" class="st0" d="M347.88,243.24c2.24,0,4.49,0,6.73,0c2.67,9.68,5.19,19.5,8,29.32
		c0.56,1.82,0.7,3.79,0.98,5.61c3.09-11.78,6.87-23.29,10.38-34.93c1.96,0,3.93,0,5.89,0c2.95,11.64,6.59,23.15,9.12,34.79
		c2.52-11.64,6.17-23.15,8.98-34.79c2.1-0.14,4.35-0.14,6.45-0.14c-4.07,13.61-8,27.35-12.2,40.96c-2.24,0-4.49,0-6.73,0
		c-2.95-11.08-6.73-22.02-8.98-33.24c-2.81,11.22-6.73,22.16-9.96,33.24c-2.1,0-4.35,0-6.45,0
		C356.02,270.59,351.81,256.98,347.88,243.24z"/>
	<path id="XMLID_21_" class="st0" d="M0,258.1c12.76,0,25.67,0.14,38.44,0.14c0,12.34,0,24.83,0,37.17
		c-12.76-1.96-25.67-3.51-38.44-5.33V258.1z"/>
	<path id="XMLID_22_" class="st0" d="M43.06,258.52c16.97,0,34.09,0,51.06,0c0,14.87,0,29.74,0,44.61
		c-16.97-2.52-33.95-4.91-50.92-7.15C43.06,283.49,43.06,271.01,43.06,258.52z"/>
</g>
</svg>
